<svg width="517" height="45" viewBox="0 0 517 45" fill="none" xmlns="http://www.w3.org/2000/svg">
<path d="M35.0011 21.3676C37.5337 22.3037 39.4944 23.6671 40.8832 25.4579C42.2721 27.2487 42.9665 29.4058 42.9665 31.9292C42.9665 35.6736 41.4143 38.5837 38.3098 40.6594C35.2054 42.6944 30.7121 43.7119 24.8299 43.7119H0.688721V0.976801H23.6045C29.3232 0.976801 33.6327 1.9943 36.5329 4.02931C39.474 6.06431 40.9445 8.77087 40.9445 12.149C40.9445 14.1433 40.4339 15.9341 39.4127 17.5214C38.4323 19.1087 36.9618 20.3907 35.0011 21.3676ZM14.9039 11.0501V17.3993H21.6438C24.7891 17.3993 26.3617 16.3411 26.3617 14.2247C26.3617 12.1083 24.7891 11.0501 21.6438 11.0501H14.9039ZM23.6045 33.6386C26.7906 33.6386 28.3837 32.5194 28.3837 30.2809C28.3837 28.0424 26.7906 26.9231 23.6045 26.9231H14.9039V33.6386H23.6045Z" fill="#F5F5F7"/>
<path d="M74.5484 44.6887C69.9326 44.6887 65.7865 43.7323 62.1102 41.8194C58.4339 39.9064 55.5541 37.2609 53.4708 33.8828C51.3876 30.464 50.3459 26.6179 50.3459 22.3444C50.3459 18.0708 51.3876 14.245 53.4708 10.8669C55.5541 7.44812 58.4339 4.78226 62.1102 2.86936C65.7865 0.956452 69.9326 0 74.5484 0C79.1643 0 83.3104 0.956452 86.9867 2.86936C90.663 4.78226 93.5428 7.44812 95.6261 10.8669C97.7093 14.245 98.7509 18.0708 98.7509 22.3444C98.7509 26.6179 97.7093 30.464 95.6261 33.8828C93.5428 37.2609 90.663 39.9064 86.9867 41.8194C83.3104 43.7323 79.1643 44.6887 74.5484 44.6887ZM74.5484 33.0281C76.3458 33.0281 77.9593 32.6008 79.3889 31.7461C80.8595 30.8507 82.0236 29.6093 82.8814 28.022C83.7393 26.394 84.1682 24.5015 84.1682 22.3444C84.1682 20.1873 83.7393 18.315 82.8814 16.7277C82.0236 15.0997 80.8595 13.8584 79.3889 13.0037C77.9593 12.1083 76.3458 11.6606 74.5484 11.6606C72.7511 11.6606 71.1172 12.1083 69.6467 13.0037C68.217 13.8584 67.0732 15.0997 66.2154 16.7277C65.3576 18.315 64.9287 20.1873 64.9287 22.3444C64.9287 24.5015 65.3576 26.394 66.2154 28.022C67.0732 29.6093 68.217 30.8507 69.6467 31.7461C71.1172 32.6008 72.7511 33.0281 74.5484 33.0281Z" fill="#F5F5F7"/>
<path d="M130.469 44.6887C125.853 44.6887 121.707 43.7323 118.031 41.8194C114.354 39.9064 111.474 37.2609 109.391 33.8828C107.308 30.464 106.266 26.6179 106.266 22.3444C106.266 18.0708 107.308 14.245 109.391 10.8669C111.474 7.44812 114.354 4.78226 118.031 2.86936C121.707 0.956452 125.853 0 130.469 0C135.085 0 139.231 0.956452 142.907 2.86936C146.583 4.78226 149.463 7.44812 151.546 10.8669C153.63 14.245 154.671 18.0708 154.671 22.3444C154.671 26.6179 153.63 30.464 151.546 33.8828C149.463 37.2609 146.583 39.9064 142.907 41.8194C139.231 43.7323 135.085 44.6887 130.469 44.6887ZM130.469 33.0281C132.266 33.0281 133.88 32.6008 135.309 31.7461C136.78 30.8507 137.944 29.6093 138.802 28.022C139.66 26.394 140.089 24.5015 140.089 22.3444C140.089 20.1873 139.66 18.315 138.802 16.7277C137.944 15.0997 136.78 13.8584 135.309 13.0037C133.88 12.1083 132.266 11.6606 130.469 11.6606C128.672 11.6606 127.038 12.1083 125.567 13.0037C124.137 13.8584 122.994 15.0997 122.136 16.7277C121.278 18.315 120.849 20.1873 120.849 22.3444C120.849 24.5015 121.278 26.394 122.136 28.022C122.994 29.6093 124.137 30.8507 125.567 31.7461C127.038 32.6008 128.672 33.0281 130.469 33.0281Z" fill="#F5F5F7"/>
<path d="M181.365 29.5483L178.117 33.1502V43.7119H163.902V0.976801H178.117V16.4835L192.21 0.976801H207.957L190.801 19.7802L208.815 43.7119H192.088L181.365 29.5483Z" fill="#F5F5F7"/>
<path d="M241.55 21.1844H254.111V39.2552C251.578 41.0053 248.637 42.3485 245.288 43.2846C241.938 44.2207 238.65 44.6887 235.423 44.6887C230.848 44.6887 226.742 43.7526 223.107 41.8804C219.472 39.9675 216.612 37.322 214.529 33.9439C212.487 30.5251 211.465 26.6586 211.465 22.3444C211.465 18.0301 212.487 14.184 214.529 10.8059C216.612 7.38707 219.492 4.74156 223.168 2.86936C226.885 0.956452 231.072 0 235.729 0C239.936 0 243.694 0.712251 247.003 2.13675C250.353 3.52056 253.13 5.55556 255.336 8.24177L246.084 16.3614C243.388 13.2275 240.182 11.6606 236.464 11.6606C233.278 11.6606 230.746 12.617 228.867 14.5299C226.988 16.4428 226.048 19.0476 226.048 22.3444C226.048 25.5597 226.967 28.1441 228.805 30.0977C230.684 32.0513 233.176 33.0281 236.281 33.0281C238.119 33.0281 239.875 32.6822 241.55 31.9903V21.1844Z" fill="#F5F5F7"/>
<path d="M264.255 0.976801H278.715V32.5397H298.077V43.7119H264.255V0.976801Z" fill="#F5F5F7"/>
<path d="M306.054 0.976801H320.514V43.7119H306.054V0.976801Z" fill="#F5F5F7"/>
<path d="M331.458 0.976801H352.597C357.376 0.976801 361.583 1.85185 365.219 3.60196C368.895 5.31136 371.734 7.77372 373.735 10.989C375.778 14.2043 376.799 17.9894 376.799 22.3444C376.799 26.6993 375.778 30.4844 373.735 33.6997C371.734 36.915 368.895 39.3977 365.219 41.1478C361.583 42.8572 357.376 43.7119 352.597 43.7119H331.458V0.976801ZM351.984 32.4787C355.088 32.4787 357.56 31.6036 359.398 29.8535C361.277 28.0627 362.216 25.5597 362.216 22.3444C362.216 19.129 361.277 16.6463 359.398 14.8962C357.56 13.1054 355.088 12.21 351.984 12.21H345.918V32.4787H351.984Z" fill="#F5F5F7"/>
<path d="M421.722 32.845V43.7119H386.062V0.976801H420.926V11.8437H400.277V16.8498H418.413V27.2284H400.277V32.845H421.722Z" fill="#F5F5F7"/>
<path d="M449.653 32.9671H445.732V43.7119H431.271V0.976801H451.92C455.882 0.976801 459.334 1.628 462.275 2.93041C465.216 4.23281 467.483 6.10501 469.076 8.54702C470.669 10.989 471.466 13.838 471.466 17.094C471.466 20.1465 470.772 22.8124 469.383 25.0916C467.994 27.3708 465.992 29.182 463.378 30.5251L472.385 43.7119H456.944L449.653 32.9671ZM456.883 17.094C456.883 15.5067 456.393 14.2857 455.413 13.431C454.432 12.5356 452.962 12.0879 451.001 12.0879H445.732V22.1002H451.001C452.962 22.1002 454.432 21.6728 455.413 20.8181C456.393 19.9227 456.883 18.6813 456.883 17.094Z" fill="#F5F5F7"/>
<path d="M496.901 44.6887C493.347 44.6887 489.875 44.3021 486.485 43.5288C483.135 42.7148 480.378 41.6362 478.213 40.2931L482.87 29.7925C484.912 30.9728 487.2 31.9292 489.732 32.6618C492.265 33.3537 494.695 33.6997 497.024 33.6997C499.025 33.6997 500.455 33.5165 501.313 33.1502C502.17 32.7432 502.599 32.1531 502.599 31.3798C502.599 30.4844 502.027 29.8128 500.884 29.3651C499.781 28.9174 497.943 28.429 495.369 27.8999C492.061 27.208 489.303 26.4754 487.098 25.7021C484.892 24.8881 482.972 23.5857 481.338 21.7949C479.704 19.9634 478.887 17.501 478.887 14.4078C478.887 11.7216 479.643 9.27962 481.154 7.08182C482.666 4.88401 484.912 3.15426 487.894 1.89255C490.917 0.630851 494.573 0 498.862 0C501.803 0 504.683 0.3256 507.501 0.976801C510.36 1.5873 512.873 2.50305 515.038 3.72406L510.687 14.1636C506.48 12.0472 502.497 10.989 498.739 10.989C495.022 10.989 493.163 11.8844 493.163 13.6752C493.163 14.5299 493.715 15.1811 494.818 15.6288C495.921 16.0358 497.738 16.4835 500.271 16.9719C503.539 17.5824 506.296 18.2947 508.543 19.1087C510.789 19.882 512.73 21.1641 514.364 22.9549C516.038 24.7457 516.876 27.1877 516.876 30.2809C516.876 32.9671 516.12 35.4091 514.609 37.6069C513.097 39.764 510.83 41.4938 507.808 42.7962C504.826 44.0579 501.19 44.6887 496.901 44.6887Z" fill="#F5F5F7"/>
</svg>
